<?xml version="1.0" encoding="utf-8"?>
<!-- Generator: Adobe Illustrator 24.0.1, SVG Export Plug-In . SVG Version: 6.00 Build 0)  -->
<svg version="1.1" id="Layer_1" xmlns="http://www.w3.org/2000/svg" xmlns:xlink="http://www.w3.org/1999/xlink" x="0px" y="0px"
	 viewBox="0 0 70 46.7" style="enable-background:new 0 0 70 46.7;" xml:space="preserve">
<style type="text/css">
	.st0{fill:#FFFFFF;}
</style>
<g>
	<path class="st0" d="M67.5,13.3H25.8c-1.4,0-2.5-1.5-2.5-3.3c0-1.8,1.1-3.3,2.5-3.3h41.7c1.4,0,2.5,1.5,2.5,3.3
		C70,11.8,68.9,13.3,67.5,13.3z"/>
	<path class="st0" d="M13.3,13.3h-10C1.5,13.3,0,11.8,0,10c0-1.8,1.5-3.3,3.3-3.3h10c1.8,0,3.3,1.5,3.3,3.3
		C16.7,11.8,15.2,13.3,13.3,13.3z"/>
	<path class="st0" d="M44.4,40H5.5c-1.3,0-2.3-1.5-2.3-3.3c0-1.8,1-3.3,2.3-3.3h38.8c1.3,0,2.3,1.5,2.3,3.3
		C46.7,38.5,45.6,40,44.4,40z"/>
	<path class="st0" d="M20,20c-5.5,0-10-4.5-10-10S14.5,0,20,0s10,4.5,10,10S25.5,20,20,20z M20,6.7c-1.8,0-3.3,1.5-3.3,3.3
		c0,1.8,1.5,3.3,3.3,3.3s3.3-1.5,3.3-3.3C23.3,8.2,21.8,6.7,20,6.7z"/>
	<path class="st0" d="M50,46.7c-5.5,0-10-4.5-10-10s4.5-10,10-10s10,4.5,10,10S55.5,46.7,50,46.7z M50,33.3c-1.8,0-3.3,1.5-3.3,3.3
		c0,1.8,1.5,3.3,3.3,3.3s3.3-1.5,3.3-3.3C53.3,34.8,51.8,33.3,50,33.3z"/>
	<path class="st0" d="M66.7,40h-10c-1.8,0-3.3-1.5-3.3-3.3c0-1.8,1.5-3.3,3.3-3.3h10c1.8,0,3.3,1.5,3.3,3.3C70,38.5,68.5,40,66.7,40
		z"/>
</g>
</svg>
