<?xml version="1.0" encoding="utf-8"?>
<!-- Generator: Adobe Illustrator 24.0.1, SVG Export Plug-In . SVG Version: 6.00 Build 0)  -->
<svg version="1.1" id="Layer_1" xmlns="http://www.w3.org/2000/svg" xmlns:xlink="http://www.w3.org/1999/xlink" x="0px" y="0px"
	 viewBox="0 0 233 38" style="enable-background:new 0 0 233 38;" xml:space="preserve">
<style type="text/css">
	.st0{fill:#00CCFF;}
</style>
<g>
	<path class="st0" d="M17.7,30.6v5.9c0,0.1-0.1,0.2-0.2,0.2H0.7c-0.1,0-0.2-0.1-0.2-0.3L0.5,0.8c0-0.1,0.1-0.2,0.2-0.2h16.7
		c0.1,0,0.2,0.1,0.2,0.3v5.8c0,0.1-0.1,0.2-0.2,0.2H6.8V15h10.6c0.1,0,0.2,0.1,0.2,0.2l0.1,5.9c0,0.1-0.1,0.2-0.2,0.2H6.8v9.1h10.7
		C17.6,30.3,17.7,30.4,17.7,30.6z"/>
	<path class="st0" d="M39.5,30.6v5.9c0,0.2-0.1,0.3-0.3,0.3H22.5c-0.1,0-0.2-0.1-0.2-0.3v-1l0.1-34.6c0-0.2,0.1-0.3,0.3-0.3h5.8
		c0.2,0,0.3,0.1,0.3,0.3l-0.1,29.5h10.7C39.4,30.3,39.5,30.4,39.5,30.6z"/>
	<path class="st0" d="M66.3,3.5c-1.9-1.9-4.4-2.9-7.6-2.9h-10c-0.1,0-0.2,0.1-0.2,0.2l-0.1,30.8l0,4.9c0,0.2,0.1,0.3,0.3,0.3h5.8
		c0.2,0,0.3-0.1,0.3-0.3V23.4h3.9c1.8,0,3.5-0.5,5.1-1.5c1.6-1,2.8-2.4,3.8-4.2c1-1.8,1.5-3.9,1.5-6.4C69.1,8.1,68.2,5.4,66.3,3.5z
		 M61.7,15.5c-0.8,1.1-1.8,1.6-2.9,1.6h-3.9V6.8l3.9-0.1c1.3,0,2.3,0.4,3,1.3c0.7,0.9,1.1,2,1.1,3.3C62.9,13.1,62.5,14.5,61.7,15.5z
		"/>
	<path class="st0" d="M92.8,25c-0.2-2.4-1.1-4.6-2.8-6.4c0.4-0.3,0.9-0.9,1.4-1.6c0.5-0.7,1-1.6,1.3-2.6c0.4-1,0.6-2.2,0.6-3.5
		c0-1.9-0.5-3.7-1.4-5.2C91,4.1,89.8,2.9,88.2,2c-1.6-0.9-3.3-1.4-5.2-1.4H72.5c-0.1,0-0.2,0.1-0.2,0.2L72.3,28l0,8.4
		c0,0.2,0.1,0.3,0.2,0.3h5.9c0.1,0,0.2-0.1,0.2-0.3l0-9.4l0-5.9H82c1.3,0,2.4,0.5,3.2,1.4c0.9,0.9,1.3,2,1.3,3.2v10.7
		c0,0.1,0.1,0.2,0.2,0.2h5.9c0.2,0,0.3-0.1,0.3-0.3l-0.1-10.6C92.8,25.5,92.8,25.2,92.8,25z M85.9,13.8C85.1,14.6,84.1,15,83,15
		h-4.5V6.8H83c1.1,0,2.1,0.4,2.9,1.2c0.8,0.8,1.2,1.7,1.2,2.9C87.1,12,86.7,13,85.9,13.8z"/>
	<path class="st0" d="M116.8,21.4l0-11c0-1.9-0.5-3.6-1.4-5.2c-0.9-1.6-2.1-2.8-3.7-3.7c-1.5-0.9-3.2-1.4-5.1-1.4
		c-1.8,0-3.5,0.5-5.1,1.4c-1.6,0.9-2.8,2.2-3.7,3.7c-0.9,1.6-1.4,3.3-1.4,5.2l0,14.1l0,2.4c0,1.9,0.5,3.6,1.4,5.2
		c0.9,1.6,2.2,2.8,3.7,3.8c1.5,1,3.2,1.4,5.1,1.4s3.6-0.5,5.1-1.4c1.5-1,2.8-2.2,3.7-3.8c0.9-1.6,1.4-3.3,1.4-5.2L116.8,21.4z
		 M109.3,29.7c-0.8,0.8-1.7,1.3-2.7,1.3c-1.1,0-2-0.4-2.8-1.2c-0.8-0.8-1.1-1.8-1.1-2.9V10.4c0-1.2,0.4-2.2,1.1-2.9
		c0.8-0.8,1.7-1.2,2.8-1.2c1.1,0,2,0.4,2.8,1.2c0.7,0.8,1.1,1.8,1.1,2.9l0,12l0,4.5C110.5,27.9,110.1,28.8,109.3,29.7z"/>
	<path class="st0" d="M134.1,12.7v-2c0-1.3-0.4-2.4-1.1-3.3c-0.7-0.9-1.7-1.3-2.8-1.3c-1,0-1.9,0.4-2.7,1.2
		c-0.8,0.8-1.2,1.8-1.2,2.9v16.5c0,1.1,0.4,2.1,1.1,2.9c0.8,0.8,1.7,1.2,2.7,1.2c1.1,0,2-0.4,2.8-1.2c0.7-0.8,1.1-1.8,1.1-3v-2.5
		h-3.6c-0.2,0-0.3-0.1-0.3-0.3v-5.8c0-0.2,0.1-0.3,0.3-0.3h9.7c0.1,0,0.2,0.1,0.2,0.3v8.6c0,1.9-0.5,3.7-1.4,5.3
		c-0.9,1.6-2.1,2.8-3.7,3.8c-1.5,0.9-3.2,1.4-5.1,1.4c-1.9,0-3.6-0.5-5.1-1.4c-1.5-0.9-2.7-2.2-3.7-3.8c-0.9-1.6-1.4-3.3-1.4-5.3
		V10.4c0-1.9,0.5-3.6,1.4-5.2c0.9-1.6,2.1-2.8,3.7-3.8c1.5-0.9,3.2-1.4,5.1-1.4c1.9,0,3.6,0.5,5.2,1.4c1.5,0.9,2.8,2.2,3.7,3.7
		c0.9,1.6,1.3,3.3,1.3,5.2v2.4c0,0.1-0.1,0.2-0.3,0.2h-5.8C134.2,13,134.1,12.9,134.1,12.7z"/>
	<path class="st0" d="M161.9,18.5c0.4-0.3,0.9-0.9,1.4-1.6c0.5-0.7,1-1.6,1.3-2.6c0,0,0-0.1,0-0.1c0.4-1,0.5-2.1,0.5-3.3
		c0-1.9-0.5-3.7-1.4-5.2c-0.9-1.5-2.2-2.8-3.8-3.7c-1.6-0.9-3.3-1.4-5.2-1.4h-10.5c-0.1,0-0.2,0.1-0.2,0.2l0,16.5l-0.1,19.2
		c0,0.2,0.1,0.3,0.2,0.3h5.9c0.1,0,0.2-0.1,0.2-0.3l0.1-15.3h3.4c1.3,0,2.4,0.5,3.2,1.4c0.9,0.9,1.3,2,1.3,3.2v10.7
		c0,0.1,0.1,0.2,0.2,0.2h5.9c0.2,0,0.3-0.1,0.3-0.3l-0.1-10.6C164.7,23,163.8,20.6,161.9,18.5z M150.4,6.8h4.5
		c1.1,0,2.1,0.4,2.9,1.2c0.8,0.8,1.2,1.7,1.2,2.9c0,1.1-0.4,2.1-1.2,2.9c-0.8,0.8-1.8,1.2-2.9,1.2h-4.5V6.8z"/>
	<path class="st0" d="M186.3,30.6v5.9c0,0.1-0.1,0.2-0.2,0.2h-16.8c-0.1,0-0.2-0.1-0.2-0.3l0-22.9l0-12.7c0-0.1,0.1-0.2,0.2-0.2H186
		c0.1,0,0.2,0.1,0.2,0.3v5.8c0,0.1-0.1,0.2-0.2,0.2h-10.6V15H186c0.1,0,0.2,0.1,0.2,0.2l0.1,5.9c0,0.1-0.1,0.2-0.2,0.2h-10.7v9.1
		h10.7C186.2,30.3,186.3,30.4,186.3,30.6z"/>
	<path class="st0" d="M209.6,26.8c0,2-0.5,3.7-1.4,5.3c-0.9,1.6-2.1,2.8-3.7,3.7c-1.5,0.9-3.2,1.4-5.1,1.4s-3.6-0.5-5.1-1.4
		c-1.5-1-2.8-2.2-3.7-3.8c-0.9-1.6-1.4-3.3-1.4-5.2v-2.4c0-0.2,0.1-0.3,0.3-0.3h5.8c0.1,0,0.2,0.1,0.2,0.3v2.4
		c0,1.1,0.4,2.1,1.1,2.9c0.8,0.8,1.7,1.2,2.8,1.2c1.1,0,2-0.4,2.8-1.2c0.8-0.8,1.1-1.8,1.1-2.9c0-1.3-0.8-2.4-2.5-3.3
		c-0.6-0.3-1.4-0.8-2.6-1.5c-1.2-0.7-2.3-1.3-3.3-1.9c-1.9-1.1-3.3-2.5-4.2-4.2c-0.9-1.6-1.3-3.4-1.4-5.5c0-0.1,0-0.2,0-0.2
		c0-1.9,0.5-3.7,1.4-5.2c0.9-1.5,2.2-2.8,3.7-3.7c1.5-0.9,3.2-1.3,5-1.3c1.8,0,3.5,0.5,5.1,1.4c1.5,0.9,2.8,2.1,3.7,3.7
		c0.5,0.8,0.8,1.6,1,2.4c0.2,0.9,0.3,1.8,0.3,2.7v4.3c0,0.1-0.1,0.2-0.2,0.2h-5.8c-0.1,0-0.2-0.1-0.2-0.2l-0.1-4.3
		c0-0.7-0.1-1.3-0.4-1.8c-0.2-0.4-0.5-0.8-0.8-1.2c-0.8-0.8-1.7-1.1-2.7-1.1c-1.1,0-2,0.4-2.8,1.2c-0.6,0.6-1,1.4-1.1,2.2
		c0,0.2-0.1,0.5-0.1,0.7c0,1.1,0.2,2.1,0.7,2.9c0.5,0.8,1.4,1.5,2.6,2.2c0.2,0.1,0.5,0.3,1,0.5c0.5,0.3,1,0.6,1.6,0.9
		c0.6,0.3,1.1,0.6,1.6,0.9c0.5,0.2,0.8,0.4,0.9,0.5c1.7,1,3.1,2.2,4.1,3.6C209.1,23.1,209.6,24.8,209.6,26.8z"/>
	<path class="st0" d="M232.9,10.4c0-1.9-0.5-3.6-1.4-5.2c-0.2-0.3-0.4-0.6-0.6-0.9c-0.8-1.2-1.9-2.1-3.1-2.9
		c-1.5-0.9-3.2-1.4-5.1-1.4c-1.8,0-3.5,0.5-5.1,1.4c-1.6,0.9-2.8,2.2-3.7,3.7c-0.3,0.6-0.6,1.2-0.8,1.8c-0.4,1.1-0.5,2.2-0.5,3.4
		l-0.1,16.5c0,1.9,0.5,3.6,1.4,5.2c0.9,1.6,2.2,2.8,3.7,3.8s3.2,1.4,5.1,1.4s3.6-0.5,5.1-1.4s2.8-2.2,3.7-3.8
		c0.9-1.6,1.4-3.3,1.4-5.2L232.9,10.4z M225.5,29.7c-0.8,0.8-1.7,1.3-2.7,1.3c-1.1,0-2-0.4-2.8-1.2c-0.8-0.8-1.1-1.8-1.1-2.9V10.4
		c0-1.2,0.4-2.2,1.1-2.9c0.8-0.8,1.7-1.2,2.8-1.2c1.1,0,2,0.4,2.8,1.2c0.7,0.8,1.1,1.8,1.1,2.9l0.1,16.5
		C226.7,27.9,226.3,28.8,225.5,29.7z"/>
</g>
</svg>
