<?xml version="1.0" encoding="utf-8"?>
<!-- Generator: Adobe Illustrator 24.0.1, SVG Export Plug-In . SVG Version: 6.00 Build 0)  -->
<svg version="1.1" id="promo-promotion-discount-deal-percent-ribbon"
	 xmlns="http://www.w3.org/2000/svg" xmlns:xlink="http://www.w3.org/1999/xlink" x="0px" y="0px" viewBox="0 0 15.1 15.1"
	 style="enable-background:new 0 0 15.1 15.1;" xml:space="preserve">
<style type="text/css">
	.st0{fill:#00CCFF;}
</style>
<path class="st0" d="M14.1,5.4V3.2l-2.2-1.1L9.7,0L7.6,0.5L5.4,0L3.3,2.1L1.1,3.2v2.2L0,7.6l1.1,2.1v2.2L3.3,13l2.1,2.1l2.2-0.5
	l2.2,0.5l2.1-2.1l2.2-1.1V9.7l1.1-2.1L14.1,5.4z M13.1,9.4v1.8l-1.7,0.9L9.4,14l-1.8-0.5L5.7,14l-1.8-1.8l-1.9-1V9.4L1.1,7.6
	l0.9-1.9V3.9L3.8,3l1.9-1.9l1.8,0.5l1.8-0.5l1.8,1.8l1.9,1v1.8L14,7.6L13.1,9.4z"/>
<rect x="3.3" y="7.1" transform="matrix(0.7071 -0.7071 0.7071 0.7071 -3.1278 7.5575)" class="st0" width="8.5" height="1"/>
<path class="st0" d="M5.6,7.1c0.8,0,1.5-0.7,1.5-1.5S6.4,4.1,5.6,4.1S4.1,4.7,4.1,5.6S4.7,7.1,5.6,7.1z M5.6,5.1
	c0.3,0,0.5,0.2,0.5,0.5S5.8,6.1,5.6,6.1S5.1,5.8,5.1,5.6S5.3,5.1,5.6,5.1z"/>
<path class="st0" d="M9.6,8.1c-0.8,0-1.5,0.7-1.5,1.5s0.7,1.5,1.5,1.5s1.5-0.7,1.5-1.5S10.4,8.1,9.6,8.1z M9.6,10.1
	c-0.3,0-0.5-0.2-0.5-0.5s0.2-0.5,0.5-0.5s0.5,0.2,0.5,0.5S9.8,10.1,9.6,10.1z"/>
</svg>
